HIERARCHY
ROOT Hips
{
  OFFSET -331.093 83.8371 -317.828
  CHANNELS 6 Xposition Yposition Zposition Zrotation Xrotation Yrotation
  JOINT LeftUpLeg
  {
    OFFSET 8.64259 1.95398 -2.38835
    CHANNELS 3 Zrotation Xrotation Yrotation
    JOINT LeftLeg
    {
      OFFSET 43.7702 0 0
      CHANNELS 3 Zrotation Xrotation Yrotation
      JOINT LeftFoot
      {
        OFFSET 40.6238 0 0
        CHANNELS 3 Zrotation Xrotation Yrotation
        JOINT LeftToeBase
        {
          OFFSET 12.7242 0 0
          CHANNELS 3 Zrotation Xrotation Yrotation
          End Site
          {
            OFFSET 0 0 0
          }
        }
      }
    }
  }
  JOINT RightUpLeg
  {
    OFFSET -8.2249 1.95398 -2.59336
    CHANNELS 3 Zrotation Xrotation Yrotation
    JOINT RightLeg
    {
      OFFSET 43.5653 0 0
      CHANNELS 3 Zrotation Xrotation Yrotation
      JOINT RightFoot
      {
        OFFSET 40.6238 0 0
        CHANNELS 3 Zrotation Xrotation Yrotation
        JOINT RightToeBase
        {
          OFFSET 12.7242 0 0
          CHANNELS 3 Zrotation Xrotation Yrotation
          End Site
          {
            OFFSET 0 0 0
          }
        }
      }
    }
  }
  JOINT Spine
  {
    OFFSET 0.165834 0.87714 6.61349
    CHANNELS 3 Zrotation Xrotation Yrotation
    JOINT Spine1
    {
      OFFSET 7.38963 1.71661e-005 0
      CHANNELS 3 Zrotation Xrotation Yrotation
      JOINT Spine2
      {
        OFFSET 11.9445 1.14441e-005 0
        CHANNELS 3 Zrotation Xrotation Yrotation
        JOINT Spine3
        {
          OFFSET 14.7254 4.19617e-005 0
          CHANNELS 3 Zrotation Xrotation Yrotation
          JOINT Spine4
          {
            OFFSET 10.9679 0 0
            CHANNELS 3 Zrotation Xrotation Yrotation
            JOINT RightShoulder
            {
              OFFSET 2.46616 -1.6653 3.69651
              CHANNELS 3 Zrotation Xrotation Yrotation
              JOINT RightArm
              {
                OFFSET 13.0012 0 0
                CHANNELS 3 Zrotation Xrotation Yrotation
                JOINT RightForeArm
                {
                  OFFSET 28.7848 1.62311e-005 0
                  CHANNELS 3 Zrotation Xrotation Yrotation
                  JOINT RightHand
                  {
                    OFFSET 26.5688 1.62095e-005 0
                    CHANNELS 3 Zrotation Xrotation Yrotation
                    End Site
                    {
                      OFFSET 0 0 0
                    }
                  }
                }
              }
            }
            JOINT LeftShoulder
            {
              OFFSET 2.38034 -1.29275 -3.7523
              CHANNELS 3 Zrotation Xrotation Yrotation
              JOINT LeftArm
              {
                OFFSET 16.3182 6.07031e-005 0
                CHANNELS 3 Zrotation Xrotation Yrotation
                JOINT LeftForeArm
                {
                  OFFSET 27.0901 0 0
                  CHANNELS 3 Zrotation Xrotation Yrotation
                  JOINT LeftHand
                  {
                    OFFSET 24.5451 1.51738e-005 0
                    CHANNELS 3 Zrotation Xrotation Yrotation
                    End Site
                    {
                      OFFSET 0 0 0
                    }
                  }
                }
              }
            }
            JOINT Neck
            {
              OFFSET 5.0226 -0.0266342 0
              CHANNELS 3 Zrotation Xrotation Yrotation
              JOINT Head
              {
                OFFSET 6.69364 2.86102e-005 0
                CHANNELS 3 Zrotation Xrotation Yrotation
                End Site
                {
                  OFFSET 0 0 0
                }
              }
            }
          }
        }
      }
    }
  }
}
MOTION
Frames:	18
Frame Time:	0.0416667
-3.49453 98.3971 -11.384 76.7794 -49.0281 80.5884 -177.67 38.6502 93.5385 -7.41254 3.55008 -3.23513 42.9195 -11.7628 -8.9396 32.0169 8.82499 20.8515 176.413 -7.45253 89.0473 -61.4755 -2.08152 -7.10804 37.384 8.65238 8.28881 13.0574 0.464197 -9.60335 1.56536 7.24226 -89.8461 12.3945 3.18368 -0.0555545 0.727439 3.17818 -0.195782 -21.8372 3.05305 0.904745 -1.8245 3.05307 0.904745 93.0179 -36.5113 -98.6375 42.5091 -23.9426 21.7558 -14.4977 11.8519 -113.933 -30.4453 -0.992202 -1.44409 -87.5825 -42.2545 81.3116 -57.716 9.84417 55.3822 13.6132 -14.143 -100.985 39.2537 3.70866 5.60267 -1.04737 -3.15788 0.925008 -1.32477 -3.25713 -2.41713 
4.33848 96.0437 -3.59885 80.7941 -47.1717 82.1082 -175.216 33.6799 88.1932 -13.1301 12.0965 -3.21341 43.8561 -12.0906 -10.5868 34.4911 13.2004 24.8379 176.665 -2.43226 88.0808 -80.1345 0.777362 -5.30428 37.4395 8.18742 7.72591 12.4026 0.467786 -7.28046 1.19831 7.48534 -89.614 11.8999 2.56459 0.494763 0.231421 2.58389 0.381335 -22.3201 2.29726 1.24301 -2.30744 2.29726 1.24301 92.6466 -37.9859 -98.9378 42.2271 -21.8109 23.3421 -9.52548 7.16971 -107.956 -29.2189 -0.275148 -4.14076 -89.0217 -43.8403 79.3344 -52.7784 9.49803 51.7958 14.3045 -12.4759 -99.5742 38.8758 4.02361 6.53701 -3.03574 -2.8071 -0.579112 -0.122984 -2.74484 -1.72107 
11.7139 93.7981 3.69586 82.8755 -45.281 82.4107 -173.583 34.2798 85.0623 -29.2312 24.454 -5.98993 55.476 -2.82058 3.35014 35.1291 6.7071 6.12933 175.518 6.36931 88.5833 -98.0134 4.34565 -3.49959 36.6101 6.61069 6.25887 13.3095 0.3868 -6.83916 0.803656 7.65617 -89.3154 11.5512 1.91917 1.16669 -0.118734 1.96864 1.08108 -22.6571 1.47984 1.68955 -2.64449 1.47985 1.68955 92.3859 -40.0558 -98.8919 41.7057 -21.7265 24.4118 -10.1458 7.73087 -103.177 -28.5152 -0.433744 -3.46098 -90.8062 -45.0469 76.8012 -47.1127 9.45521 47.5579 13.9419 -11.3841 -99.2262 38.4758 3.47158 5.17648 -4.32795 -2.30786 -2.75674 1.34874 -2.02891 -0.748096 
18.8395 91.6251 10.1281 83.4156 -46.3963 81.3795 -171.542 34.9358 82.113 -45.2848 16.9593 -5.89596 65.4803 4.08038 3.61161 33.0142 3.24086 0.236538 176.639 20.2775 87.9584 -114.093 6.22042 -3.0133 33.821 5.24651 5.13954 14.6334 0.293506 -8.22296 0.457204 7.79297 -88.9695 11.2722 1.3897 1.91458 -0.399345 1.4726 1.85158 -22.9252 0.750201 2.24358 -2.91256 0.750195 2.24357 91.7525 -40.7493 -99.8127 42.5771 -22.1601 25.1011 -10.9819 5.68044 -95.608 -31.0565 -0.609742 -2.93949 -91.8796 -46.6723 75.5625 -40.7005 9.16493 41.996 14.2375 -10.424 -99.3825 39.6365 4.12523 6.58109 -3.15707 -0.890866 -3.27772 1.79623 -0.537641 -0.69481 
25.0683 89.4453 15.991 82.3496 -44.9809 79.5855 -171.684 33.8 79.0252 -53.5154 16.5208 -4.56375 68.4097 8.22505 7.84388 43.8941 11.9433 0.975533 176.414 38.5148 89.0487 -125.564 4.02087 -3.133 30.5044 5.77824 5.69431 17.5296 0.0451136 -7.91452 -0.11263 7.98824 -88.7743 10.8863 0.342353 2.40463 -0.78679 0.447833 2.38725 -23.3042 -0.395927 2.3964 -3.29153 -0.395935 2.3964 91.1787 -40.937 -100.745 42.7942 -21.8267 26.0477 -9.98349 3.80811 -89.3253 -32.2658 -0.762726 -2.47998 -95.8291 -49.2888 70.3786 -30.285 8.07844 32.6964 14.5256 -9.06422 -99.6828 36.038 4.35815 8.39557 1.99974 0.186786 -3.02037 -0.696034 0.649245 -0.523213 
32.3504 89.017 22.9886 81.0732 -43.9562 81.0882 -172.36 29.002 81.795 -56.104 20.188 -3.80878 70.2411 11.1922 10.8772 50.1786 17.4673 1.68109 173.193 52.8387 95.3393 -126.282 3.31416 -3.32675 31.1097 6.11117 5.94413 18.9819 -0.0730121 -7.57102 -0.411476 7.99445 -89.0489 10.8855 -0.379462 1.92812 -0.786835 -0.294232 1.94294 -23.3131 -0.941317 1.72504 -3.30043 -0.941316 1.72504 90.7838 -42.0027 -101.135 43.2499 -22.2223 30.787 -9.21696 2.87249 -86.3345 -32.9814 -0.571658 -3.20598 -96.8648 -48.593 68.6238 -24.0655 9.85879 22.6021 14.0405 -8.94578 -99.7189 37.7156 4.54732 8.31712 2.74323 0.692583 -3.67104 -0.830161 1.28603 0.56642 
40.486 90.7132 31.0229 81.6545 -41.9052 83.5982 -174.484 18.8127 85.1682 -51.2247 23.0439 -2.00655 70.4382 10.7821 9.2371 51.0218 19.4389 3.96344 169.104 59.9639 100.632 -118.765 2.85675 -2.93859 37.8127 5.45357 4.77139 19.4938 -0.217875 -10.3313 -0.871093 7.97184 -89.3396 10.9381 -1.42867 1.4492 -0.732946 -1.36348 1.51066 -23.2711 -1.79812 0.952808 -3.25849 -1.7981 0.952808 90.5556 -43.0461 -101.241 44.7528 -23.3836 37.1487 -10.0721 2.56827 -83.6362 -32.7711 -0.400407 -3.77851 -94.9641 -47.4228 71.085 -21.2068 7.80816 15.5662 13.7454 -9.53608 -103.891 37.3868 4.12595 7.25555 0.986389 1.67887 -3.98288 -0.65495 2.25974 1.29981 
49.2763 93.7974 39.5383 81.4419 -41.5729 85.3575 -174.912 6.6897 87.7999 -39.3386 28.591 -0.898171 63.1311 4.21939 6.44917 48.4608 19.8091 8.80962 169.798 63.0358 102.254 -105.286 2.70316 -1.9334 42.9554 4.98289 4.05946 19.3747 -0.202978 -10.2717 -1.19942 7.85698 -89.61 11.1702 -2.20603 0.991753 -0.499356 -2.16023 1.08791 -23.0491 -2.40204 0.282573 -3.03645 -2.40204 0.282563 90.1891 -43.6229 -101.694 46.8781 -25.2493 43.5526 -9.31489 2.80302 -82.3623 -29.6955 -0.0459815 -5.01443 -92.8206 -46.0365 73.9362 -21.1668 5.17424 11.9984 13.7785 -10.4333 -109.707 36.5721 4.09634 7.42236 -0.776048 2.77654 -4.08612 -1.09441 3.3073 2.43795 
57.9133 96.697 47.7858 82.159 -40.448 86.6006 -174.284 -4.83026 93.5833 -22.4934 31.7655 0.0955118 48.3793 -7.74406 -2.63231 39.2609 11.4484 8.72191 171.256 62.8895 100.193 -88.5524 3.53601 -0.60249 44.2575 5.47037 4.61375 18.8903 -0.155685 -10.3885 -1.53134 7.82756 -89.8289 11.2303 -2.96813 0.632494 -0.437446 -2.93741 0.762608 -22.9997 -3.02087 -0.289609 -2.98706 -3.02086 -0.289618 90.4828 -43.6586 -101.201 48.5633 -25.3597 49.2452 -7.76023 3.03959 -81.9188 -28.6167 -0.0177683 -5.11474 -92.4787 -45.6973 74.3709 -21.0804 1.70167 10.2807 13.2828 -10.9044 -115.897 34.2059 3.6728 6.98462 -2.22187 3.23703 -3.95152 -1.01045 3.70966 3.61352 
66.4921 99.5458 56.1214 81.616 -39.672 87.1179 -172.193 -14.9682 95.2357 -9.43703 33.2936 0.54005 36.1957 -14.8608 -10.6618 17.7414 -7.3865 8.78925 173.662 60.076 97.8152 -67.8148 1.60739 0.651967 44.4481 6.10465 5.23123 15.8414 0.171073 -11.3729 -1.75262 7.72773 -90.0858 11.4266 -3.52716 0.186762 -0.239581 -3.51553 0.342006 -22.8117 -3.42003 -0.883208 -2.79902 -3.42003 -0.88322 90.5286 -42.8518 -101.337 50.0681 -23.6894 54.2366 -6.76548 3.66741 -83.8952 -26.8553 -0.224884 -4.25524 -92.2548 -45.6923 74.7153 -21.1084 -0.772434 9.33394 12.0264 -11.2 -121.939 35.1579 3.24344 5.42692 -3.1691 3.50677 -3.26439 -0.928041 3.88545 4.57177 
75.378 101.337 64.4507 79.7524 -39.9557 85.2715 -171.731 -16.7083 95.9155 -13.6201 28.0661 0.719122 38.1517 -13.1689 -7.31433 13.7868 -10.6371 10.5268 177.512 56.2074 94.4944 -45.5457 -1.47989 0.635901 43.8633 6.57225 5.66385 17.6323 0.0135099 -8.82706 -1.90335 7.50402 -90.1231 11.8748 -3.84275 0.166019 0.209468 -3.83172 0.335221 -22.3693 -3.71474 -0.998197 -2.35661 -3.71474 -0.998208 90.2701 -41.9293 -102.017 51.8299 -22.3703 58.4651 -8.45779 4.25567 -85.4127 -26.2914 -0.0975136 -4.78282 -91.7674 -45.45 75.406 -21.2936 -2.28337 9.38163 10.9631 -11.7338 -127.818 33.1567 2.55194 3.86495 -3.73315 3.88204 -3.14694 -0.744214 4.25002 5.756 
84.0916 102.103 72.6132 78.331 -39.9142 82.0519 -171.852 -15.4558 94.4943 -26.0577 20.7256 0.840343 43.0773 -10.7904 -5.31053 17.3417 -7.46462 12.3434 178.272 51.4448 92.036 -25.8968 -0.326468 0.670755 45.0011 5.63449 4.77788 15.7023 0.198896 -8.45386 -2.06468 7.29152 -89.9241 12.3103 -4.06713 0.610105 0.645503 -4.03633 0.788796 -21.9404 -4.06214 -0.642524 -1.9277 -4.06214 -0.642526 91.0859 -40.723 -100.961 53.0232 -21.8 59.8199 -9.87989 4.77907 -86.5358 -25.2107 0.0371868 -5.38118 -91.0338 -44.5533 76.3164 -22.6092 -1.35271 9.88369 11.1663 -13.2028 -131.528 32.9184 3.14718 5.78393 -2.24412 4.07947 -3.12245 -2.73333 4.37997 5.84336 
92.7496 102.262 80.6978 79.9911 -40.2804 80.4394 -171.465 -15.7585 93.1407 -38.4453 14.3332 0.825154 43.3189 -11.0586 -4.68198 15.3129 -9.20552 13.5854 177.971 46.2469 90.1486 -16.1664 1.62049 0.34201 43.556 5.58887 4.91634 21.167 -0.303602 -8.48462 -2.09327 7.21123 -89.6504 12.4779 -3.99255 1.15808 0.812388 -3.93773 1.33291 -21.7721 -4.15573 -0.097425 -1.75944 -4.15573 -0.0974402 91.5123 -40.3617 -100.324 52.6254 -21.1457 59.539 -11.4188 4.19753 -86.3914 -25.2907 0.023062 -5.32348 -91.2754 -44.8424 76.0134 -23.3743 1.10329 11.6847 11.5499 -14.2362 -130.839 32.8769 3.04693 5.48196 -4.0673 3.98073 -2.45456 -2.81543 4.17356 5.76599 
101.515 101.682 88.5297 83.2996 -40.6563 80.8102 -171.656 -14.3474 91.5728 -54.4345 12.0598 1.42515 42.69 -11.9859 -4.54703 13.2545 -11.0817 11.6792 176.959 42.2647 89.0262 -17.9323 2.65181 0.112709 44.186 5.50075 4.82185 25.3342 -0.861797 -10.4276 -1.9837 7.31668 -89.5081 12.2685 -3.70926 1.39895 0.601875 -3.64409 1.56101 -21.9754 -3.958 0.217855 -1.96277 -3.95798 0.217853 92.1889 -40.0999 -99.2222 50.5003 -20.0157 56.7367 -10.8008 3.7074 -85.504 -24.1474 -0.0681524 -4.90302 -92.1026 -45.2446 74.8285 -25.1731 4.06017 13.8384 11.9281 -14.444 -126.881 32.6096 2.85978 4.97336 -6.41071 3.42015 -1.54162 -1.74192 3.548 6.05053 
109.822 100.093 96.4721 84.3381 -41.6268 81.911 -170.625 -9.03012 91.9151 -71.6061 12.2357 2.09267 42.4949 -12.7796 -5.76996 16.3 -8.41335 11.8635 176.061 38.9517 90.6255 -23.0151 4.06045 0.388605 45.7169 4.79722 4.09466 24.8588 -0.820831 -10.6013 -1.72626 7.35649 -89.6569 12.1801 -3.26895 1.04801 0.512693 -3.21965 1.19099 -22.0555 -3.43261 0.0159974 -2.0428 -3.43262 0.0159843 92.1032 -40.3314 -99.3135 47.0794 -18.7912 51.8263 -9.85694 3.62754 -84.2329 -23.0939 0.00477778 -5.2631 -92.2724 -45.6355 74.6725 -28.3257 7.08906 16.0277 11.7426 -13.7962 -121.218 33.5147 2.8712 4.75837 -7.24557 3.02712 0.0234585 -1.21393 3.05096 5.34936 
118.217 98.0541 104.085 86.1834 -43.5945 84.1551 -168.121 -3.03816 90.6826 -87.2439 14.0369 2.32725 43.1918 -11.859 -2.42999 16.6313 -8.1108 12.0644 175.218 36.1969 93.0129 -35.2159 2.10419 0.452073 58.5886 1.01387 0.643208 24.1182 -0.10767 -2.68462 -1.284 7.49613 -89.9314 11.8885 -2.52081 0.407585 0.219857 -2.50045 0.518202 -22.3347 -2.52671 -0.369362 -2.32201 -2.5267 -0.369362 91.6837 -41.1783 -99.8227 42.5265 -18.7757 45.8227 -9.31624 3.46828 -82.7827 -23.9063 0.328791 -6.83668 -93.9043 -47.7097 72.7667 -29.3893 8.13711 18.7781 13.1649 -13.0274 -114.221 32.9871 3.17618 5.85014 -8.25949 2.56548 2.60412 -0.182702 2.44973 4.35429 
125.775 95.6728 111.33 87.5167 -44.8331 86.5757 -166.209 6.85392 94.4027 -102.074 15.3124 3.23543 43.2125 -11.3937 -1.31859 18.1494 -6.76511 12.0778 175.739 34.0708 95.6122 -46.8254 2.49064 -0.401566 67.1532 -2.56764 -1.64249 32.4738 -0.876093 -5.02383 -0.801001 7.72833 -90.204 11.4174 -1.689 -0.237881 -0.252441 -1.69783 -0.163283 -22.7954 -1.5394 -0.734621 -2.78276 -1.53942 -0.734612 90.9487 -42.4185 -100.748 37.5591 -17.5393 37.0188 -9.58274 2.14025 -80.6232 -23.8538 -0.0740446 -4.88539 -94.8925 -48.8926 71.6396 -30.2269 10.1056 20.2925 13.7812 -11.3023 -105.868 32.6389 2.99477 5.39057 -7.16036 1.70324 3.204 0.141697 1.53079 4.49452 
132.178 93.6997 117.766 89.3855 -47.2191 88.4375 -163.432 20.327 91.1606 -113.179 17.0769 4.04639 43.3998 -11.2899 -1.86855 22.014 -2.63671 16.4626 177.213 30.6426 97.5786 -54.7038 3.80633 -1.97876 72.5789 -5.3145 -3.04028 37.1446 -1.54614 -7.27969 -0.161772 8.1512 -90.4092 10.5686 -0.510045 -0.765964 -1.10252 -0.543264 -0.74279 -23.6357 -0.256289 -0.883829 -3.62307 -0.256298 -0.883844 89.8066 -42.2794 -102.695 33.2653 -16.3104 26.7001 -9.43202 0.934498 -80.2555 -26.4124 -0.232548 -4.19429 -96.9211 -51.272 69.411 -29.5461 11.3107 21.6986 13.6102 -9.13517 -98.0933 35.4952 3.35915 5.66247 -2.72957 0.863755 5.41511 -1.48328 0.234697 2.815 
